<?xml version="1.0" encoding="utf-8"?>
<!-- Generator: Adobe Illustrator 16.0.0, SVG Export Plug-In . SVG Version: 6.00 Build 0)  -->
<!DOCTYPE svg PUBLIC "-//W3C//DTD SVG 1.1//EN" "http://www.w3.org/Graphics/SVG/1.1/DTD/svg11.dtd">
<svg version="1.1" id="Layer_1" xmlns="http://www.w3.org/2000/svg" xmlns:xlink="http://www.w3.org/1999/xlink" x="0px" y="0px"
	 width="612px" height="497.829px" viewBox="0 0 612 497.829" enable-background="new 0 0 612 497.829" xml:space="preserve">
<g>
	<defs>
		<rect id="SVGID_1_" width="612" height="497.829"/>
	</defs>
	<clipPath id="SVGID_2_">
		<use xlink:href="#SVGID_1_"  overflow="visible"/>
	</clipPath>
	<g clip-path="url(#SVGID_2_)">
		<defs>
			<rect id="SVGID_3_" width="612" height="497.829"/>
		</defs>
		<clipPath id="SVGID_4_">
			<use xlink:href="#SVGID_3_"  overflow="visible"/>
		</clipPath>
		<path clip-path="url(#SVGID_4_)" fill="#404041" d="M410.687,347.451c0-3.22,2.634-5.854,5.854-5.854h6.467
			c4.585-6.763,7.271-14.905,7.271-23.646V159.955c0-8.425-2.505-16.289-6.793-22.903h-7c-3.22,0-5.854-2.634-5.854-5.854
			c0-2.1,1.124-3.945,2.796-4.978c-7.1-5.382-15.929-8.588-25.473-8.588H229.957c-9.269,0-17.861,3.027-24.853,8.132
			c2.158,0.864,3.695,2.976,3.695,5.434c0,3.22-2.634,5.854-5.854,5.854h-8.519c-4.287,6.614-6.792,14.478-6.792,22.903v157.998
			c0,8.74,2.685,16.883,7.27,23.646H203c3.22,0,5.854,2.634,5.854,5.854c0,2.225-1.258,4.168-3.097,5.158
			c6.871,4.822,15.217,7.667,24.2,7.667h157.998c9.327,0,17.969-3.063,24.983-8.225
			C411.572,350.978,410.687,349.314,410.687,347.451 M228.889,125.344h11.575c3.22,0,5.855,2.634,5.855,5.854
			c0,3.22-2.635,5.854-5.855,5.854h-11.575c-3.219,0-5.854-2.634-5.854-5.854C223.035,127.978,225.67,125.344,228.889,125.344
			 M240.52,353.306h-11.576c-3.219,0-5.854-2.634-5.854-5.854c0-3.22,2.635-5.854,5.854-5.854h11.576
			c3.219,0,5.854,2.634,5.854,5.854C246.374,350.672,243.739,353.306,240.52,353.306 M266.409,125.344h11.575
			c3.22,0,5.854,2.634,5.854,5.854c0,3.22-2.634,5.854-5.854,5.854h-11.575c-3.22,0-5.854-2.634-5.854-5.854
			C260.555,127.978,263.189,125.344,266.409,125.344 M278.039,353.306h-11.575c-3.22,0-5.854-2.634-5.854-5.854
			c0-3.22,2.634-5.854,5.854-5.854h11.575c3.22,0,5.854,2.634,5.854,5.854C283.893,350.672,281.259,353.306,278.039,353.306
			 M303.928,125.344h11.575c3.22,0,5.854,2.634,5.854,5.854c0,3.22-2.634,5.854-5.854,5.854h-11.575
			c-3.22,0-5.854-2.634-5.854-5.854C298.074,127.978,300.708,125.344,303.928,125.344 M315.558,353.306h-11.575
			c-3.22,0-5.854-2.634-5.854-5.854c0-3.22,2.634-5.854,5.854-5.854h11.575c3.22,0,5.854,2.634,5.854,5.854
			C321.412,350.672,318.777,353.306,315.558,353.306 M341.447,125.344h11.575c3.22,0,5.854,2.634,5.854,5.854
			c0,3.22-2.635,5.854-5.854,5.854h-11.575c-3.22,0-5.854-2.634-5.854-5.854C335.593,127.978,338.228,125.344,341.447,125.344
			 M353.078,353.306h-11.575c-3.22,0-5.855-2.634-5.855-5.854c0-3.22,2.636-5.854,5.855-5.854h11.575
			c3.219,0,5.854,2.634,5.854,5.854C358.932,350.672,356.297,353.306,353.078,353.306 M378.967,125.344h11.575
			c3.22,0,5.854,2.634,5.854,5.854c0,3.22-2.634,5.854-5.854,5.854h-11.575c-3.22,0-5.854-2.634-5.854-5.854
			C373.113,127.978,375.747,125.344,378.967,125.344 M390.597,353.306h-11.575c-3.22,0-5.854-2.634-5.854-5.854
			c0-3.22,2.634-5.854,5.854-5.854h11.575c3.22,0,5.854,2.634,5.854,5.854C396.451,350.672,393.816,353.306,390.597,353.306"/>
		<path clip-path="url(#SVGID_4_)" fill="#2D2D2D" d="M382.285,231.049l3.962-7.241l10.575-5.785l-10.575-5.784l-5.785-10.575
			l-0.442,0.809l-0.272-4.247l0.01-0.019l12-6.563l-12-6.563l-6.563-12.001l-2.916,5.331l-3.357-6.012l11.77-6.437l-15.643-8.555
			l-8.557-15.644l-8.556,15.644l-6.317,3.455l-9.023-3.305l-4.753-8.688l-3.734,6.831l-14.818,1.159v-1.638h-3.5
			c-4.941,0-9.782,0.434-14.487,1.268c-14.67,2.598-28.018,9.068-38.959,18.306l-0.008-0.008l-0.092,0.095
			c-4.016,3.402-7.704,7.174-11.012,11.27l-51.599,45.783c0,0-0.039,85.399,0.303,91.052c0.565,9.346,5.955,17.01,5.955,17.01
			l106.959-0.419l39.984-22.592c15.94-10.909,19.782-16.352,29.324-29.051l0.006-0.005l-0.001-0.001
			c10.418-13.869,16.601-31.092,16.601-49.734v-3.5h-4.046L382.285,231.049z"/>
		<path clip-path="url(#SVGID_4_)" fill="#FFFFFF" d="M302.868,316.986c-43.822,0-79.475-35.652-79.475-79.474
			c0-43.823,35.653-79.475,79.475-79.475v6.802c-40.071,0-72.672,32.601-72.672,72.673c0,40.071,32.601,72.671,72.672,72.671
			s72.671-32.601,72.671-72.671h6.803C382.342,281.334,346.69,316.986,302.868,316.986"/>
		<polygon clip-path="url(#SVGID_4_)" fill="#FFFFFF" points="353.57,148.373 359.548,159.301 370.476,165.278 359.548,171.255 
			353.57,182.184 347.594,171.255 336.665,165.278 347.594,159.301 		"/>
		<polygon clip-path="url(#SVGID_4_)" fill="#FFFFFF" points="372.273,179.691 376.257,186.976 383.543,190.961 376.257,194.945 
			372.273,202.23 368.289,194.945 361.003,190.961 368.289,186.976 		"/>
		<polygon clip-path="url(#SVGID_4_)" fill="#FFFFFF" points="379.541,208.274 382.746,214.134 388.606,217.339 382.746,220.545 
			379.541,226.405 376.336,220.545 370.477,217.339 376.336,214.134 		"/>
		<polygon clip-path="url(#SVGID_4_)" fill="#FFFFFF" points="324.922,155.479 327.371,159.96 331.853,162.411 327.371,164.86 
			324.922,169.341 322.471,164.86 317.99,162.411 322.471,159.96 		"/>
		<path clip-path="url(#SVGID_4_)" fill="#00ADEE" d="M302.188,237.053c0,0-9.342-1.721-17.578-2.95
			c-8.235-1.229-17.239,0.891-19.544,3.565c-2.305,2.673,3.042,7.744,4.241,9.772c1.198,2.028,0.553,2.304-1.567,4.24
			c-1.771,1.617-8.959,2.505-11.283,2.754v0.074c0,0-0.135-0.013-0.367-0.036c-0.232,0.023-0.366,0.036-0.366,0.036v-0.074
			c-2.324-0.249-9.512-1.137-11.283-2.754c-2.12-1.936-2.766-2.212-1.567-4.24c1.198-2.028,6.545-7.099,4.241-9.772
			c-1.409-1.634-5.324-3.057-10.032-3.639c-0.06,1.149-0.092,2.306-0.092,3.47c0,36.241,29.378,65.62,65.619,65.62
			c0.475,0,0.944-0.026,1.417-0.036c1.944-7.267,4.479-19.729,0.022-22.814c-6.392-4.425-13.644,0.369-13.644,0.369
			s-5.163,2.827-7.744-0.123c-2.582-2.95-3.073-7.621-2.828-10.816c0.246-3.196,2.951-11.924,7.867-9.712
			c4.917,2.214,14.729,3.917,16.84,1.23C309.949,254.333,302.188,237.053,302.188,237.053"/>
		<path clip-path="url(#SVGID_4_)" fill="#D0E58F" d="M302.188,237.053c0,0,34.435-10.254,36.4-0.421
			c1.968,9.834-10.324,10.326-2.949,15.243c5.848,3.897,10.756,3.777,12.543,3.561v-0.12c0,0,0.135,0.032,0.365,0.069
			c0.232-0.037,0.367-0.069,0.367-0.069v0.12c1.787,0.217,6.695,0.337,12.543-3.561c7.375-4.917-4.917-5.409-2.95-15.243
			c0.633-3.162,4.521-4.25,9.503-4.274c-2.626-33.835-30.893-60.478-65.4-60.478c-1.052,0-2.096,0.03-3.136,0.079
			c-1.454,5.666-2.664,13.708,0.624,17.893c2.112,2.688,11.924,0.983,16.84-1.23c4.917-2.212,7.621,6.515,7.867,9.711
			c0.245,3.196-0.246,7.867-2.827,10.817c-2.581,2.95-7.744,0.123-7.744,0.123s-7.252-4.794-13.644-0.369
			S302.188,237.053,302.188,237.053"/>
		<path clip-path="url(#SVGID_4_)" fill="#F48499" d="M242.874,247.439c-1.198,2.028-0.553,2.305,1.567,4.241
			c1.771,1.616,8.959,2.504,11.283,2.753v0.074c0,0,0.135-0.013,0.367-0.036c0.231,0.023,0.366,0.036,0.366,0.036v-0.074
			c2.324-0.249,9.512-1.137,11.283-2.753c2.12-1.936,2.766-2.213,1.567-4.241c-1.198-2.028-6.545-7.099-4.241-9.772
			c2.305-2.674,11.309-4.794,19.545-3.565c8.235,1.229,17.577,2.95,17.577,2.95s-7.99-23.723-1.598-28.149
			c6.393-4.425,13.645,0.369,13.645,0.369s5.163,2.827,7.744-0.123c2.582-2.95,3.072-7.621,2.827-10.817s-2.95-11.923-7.866-9.71
			c-4.917,2.212-14.729,3.916-16.84,1.229c-3.288-4.185-2.078-12.226-0.625-17.892c-33.632,1.583-60.64,28.48-62.391,62.069
			c4.708,0.582,8.623,2.005,10.032,3.639C249.42,240.34,244.072,245.412,242.874,247.439"/>
		<path clip-path="url(#SVGID_4_)" fill="#50E2C9" d="M368.229,237.499c0-1.732-0.088-3.443-0.22-5.141
			c-4.981,0.024-8.869,1.112-9.502,4.274c-1.966,9.834,10.326,10.325,2.95,15.242c-5.848,3.899-10.756,3.778-12.543,3.562v-0.119
			c0,0-0.136,0.03-0.366,0.068c-0.231-0.038-0.366-0.068-0.366-0.068v0.119c-1.787,0.217-6.695,0.338-12.543-3.562
			c-7.375-4.917,4.917-5.408,2.95-15.242c-1.967-9.833-36.401,0.421-36.401,0.421s7.761,17.28,2.352,24.163
			c-2.111,2.688-11.923,0.984-16.84-1.229s-7.621,6.515-7.867,9.711s0.246,7.867,2.827,10.816c2.582,2.95,7.744,0.123,7.744,0.123
			s7.253-4.794,13.644-0.368c4.457,3.086,1.923,15.547-0.021,22.813C339.611,302.326,368.229,273.264,368.229,237.499"/>
	</g>
	<g clip-path="url(#SVGID_2_)">
		<defs>
			<path id="SVGID_5_" d="M253.292,210.508c-15.815,27.278-6.522,62.209,20.755,78.024c27.278,15.813,62.211,6.521,78.025-20.756
				c15.813-27.278,6.52-62.21-20.757-78.024c-9.014-5.226-18.861-7.71-28.581-7.71C283.041,182.043,263.88,192.244,253.292,210.508"
				/>
		</defs>
		<clipPath id="SVGID_6_">
			<use xlink:href="#SVGID_5_"  overflow="visible"/>
		</clipPath>
		<defs>
			<filter id="Adobe_OpacityMaskFilter" filterUnits="userSpaceOnUse" x="184.408" y="125.457" width="236.547" height="235.475">
				<feColorMatrix  type="matrix" values="1 0 0 0 0  0 1 0 0 0  0 0 1 0 0  0 0 0 1 0"/>
			</filter>
		</defs>
		<mask maskUnits="userSpaceOnUse" x="184.408" y="125.457" width="236.547" height="235.475" id="SVGID_7_">
			<g filter="url(#Adobe_OpacityMaskFilter)">
				
					<linearGradient id="SVGID_8_" gradientUnits="userSpaceOnUse" x1="0" y1="497.7998" x2="1" y2="497.7998" gradientTransform="matrix(98.7806 57.2677 57.2677 -98.7806 -28256.2578 49386.3633)">
					<stop  offset="0" style="stop-color:#FFFFFF"/>
					<stop  offset="0.3065" style="stop-color:#000000"/>
					<stop  offset="1" style="stop-color:#000000"/>
				</linearGradient>
				<polygon clip-path="url(#SVGID_6_)" fill="url(#SVGID_8_)" points="270.282,125.457 420.955,212.809 335.081,360.932 
					184.408,273.58 				"/>
			</g>
		</mask>
		
			<linearGradient id="SVGID_9_" gradientUnits="userSpaceOnUse" x1="0" y1="497.7998" x2="1" y2="497.7998" gradientTransform="matrix(98.7806 57.2677 57.2677 -98.7806 -28256.2578 49386.3633)">
			<stop  offset="0" style="stop-color:#FFFFFF"/>
			<stop  offset="0.3065" style="stop-color:#FFFFFF"/>
			<stop  offset="1" style="stop-color:#FFFFFF"/>
		</linearGradient>
		<polygon clip-path="url(#SVGID_6_)" mask="url(#SVGID_7_)" fill="url(#SVGID_9_)" points="270.282,125.457 420.955,212.809 
			335.081,360.932 184.408,273.58 		"/>
	</g>
	<g clip-path="url(#SVGID_2_)">
		<defs>
			<rect id="SVGID_10_" width="612" height="497.829"/>
		</defs>
		<clipPath id="SVGID_11_">
			<use xlink:href="#SVGID_10_"  overflow="visible"/>
		</clipPath>
		<g opacity="0.17" clip-path="url(#SVGID_11_)">
			<g>
				<defs>
					<rect id="SVGID_12_" x="237.465" y="172.682" width="130.461" height="130.461"/>
				</defs>
				<clipPath id="SVGID_13_">
					<use xlink:href="#SVGID_12_"  overflow="visible"/>
				</clipPath>
				<path clip-path="url(#SVGID_13_)" fill="#231F20" d="M302.696,303.144c-35.968,0-65.231-29.262-65.231-65.231
					c0-35.968,29.263-65.231,65.231-65.231s65.231,29.263,65.231,65.231C367.927,273.882,338.664,303.144,302.696,303.144
					 M302.696,176.876c-33.655,0-61.036,27.381-61.036,61.036s27.381,61.036,61.036,61.036c33.655,0,61.036-27.381,61.036-61.036
					S336.351,176.876,302.696,176.876"/>
			</g>
		</g>
	</g>
</g>
</svg>
