<?xml version="1.0" encoding="UTF-8" standalone="no"?>
<!-- Created with Inkscape (http://www.inkscape.org/) -->

<svg
   xmlns:dc="http://purl.org/dc/elements/1.1/"
   xmlns:cc="http://creativecommons.org/ns#"
   xmlns:rdf="http://www.w3.org/1999/02/22-rdf-syntax-ns#"
   xmlns:svg="http://www.w3.org/2000/svg"
   xmlns="http://www.w3.org/2000/svg"
   xmlns:sodipodi="http://sodipodi.sourceforge.net/DTD/sodipodi-0.dtd"
   xmlns:inkscape="http://www.inkscape.org/namespaces/inkscape"
   width="210mm"
   height="297mm"
   viewBox="0 0 744.09448819 1052.3622047"
   id="svg2"
   version="1.1"
   inkscape:version="0.91 r"
   sodipodi:docname="AdvBrushes.svg">
  <defs
     id="defs4" />
  <sodipodi:namedview
     id="base"
     pagecolor="#ffffff"
     bordercolor="#666666"
     borderopacity="1.0"
     inkscape:pageopacity="0.0"
     inkscape:pageshadow="2"
     inkscape:zoom="2.8"
     inkscape:cx="201.58707"
     inkscape:cy="890.96531"
     inkscape:document-units="px"
     inkscape:current-layer="layer1"
     showgrid="false"
     inkscape:window-width="1855"
     inkscape:window-height="1056"
     inkscape:window-x="65"
     inkscape:window-y="24"
     inkscape:window-maximized="1" />
  <metadata
     id="metadata7">
    <rdf:RDF>
      <cc:Work
         rdf:about="">
        <dc:format>image/svg+xml</dc:format>
        <dc:type
           rdf:resource="http://purl.org/dc/dcmitype/StillImage" />
        <dc:title />
      </cc:Work>
    </rdf:RDF>
  </metadata>
  <g
     inkscape:label="Layer 1"
     inkscape:groupmode="layer"
     id="layer1">
    <path
       sodipodi:type="star"
       style="fill:#000000;fill-opacity:1;fill-rule:evenodd;stroke:#000000;stroke-width:1px;stroke-linecap:butt;stroke-linejoin:miter;stroke-opacity:1"
       id="path3336"
       sodipodi:sides="5"
       sodipodi:cx="-1154.2856"
       sodipodi:cy="-207.6378"
       sodipodi:r1="173.8167"
       sodipodi:r2="22.469837"
       sodipodi:arg1="0.44159236"
       sodipodi:arg2="2.7936744"
       inkscape:flatsided="false"
       inkscape:rounded="0"
       inkscape:randomized="0"
       d="m -997.14279,-133.35209 -178.26641,-66.62481 -0.9665,164.746381 8.2766,-190.129621 -156.9818,49.99019 183.3816,-50.88176 -96.0535,-133.85075 105.0594,158.68297 97.6175,-132.7145 -118.4513,148.95322 z"
       inkscape:transform-center-x="0.66557829"
       inkscape:transform-center-y="0.98122871"
       transform="matrix(0.09748217,0,0,0.0984052,187.88519,127.87035)"
       inkscape:export-filename="/home/dylan/Desktop/a.png"
       inkscape:export-xdpi="90"
       inkscape:export-ydpi="90" />
    <path
       style="fill:#000000;fill-opacity:1"
       d="m 105.35765,93.214001 a 19.607463,17.107827 0 0 0 -12.392523,3.866091 19.607463,17.107827 0 0 1 9.593093,-2.209195 19.607463,17.107827 0 0 1 19.60747,17.106083 19.607463,17.107827 0 0 1 -7.20344,13.23702 19.607463,17.107827 0 0 0 10.00288,-14.89088 19.607463,17.107827 0 0 0 -19.60748,-17.109119 z"
       id="path4138"
       inkscape:connector-curvature="0"
       inkscape:export-filename="/home/dylan/Desktop/path4138.png"
       inkscape:export-xdpi="90"
       inkscape:export-ydpi="90" />
    <g
       id="g4179"
       transform="matrix(1.7398055,0,0,1.7919993,-105.25551,-70.723653)"
       inkscape:export-filename="/home/dylan/Desktop/g4179.png"
       inkscape:export-xdpi="90"
       inkscape:export-ydpi="90">
      <g
         id="g4163">
        <ellipse
           style="fill:#000000;fill-opacity:1"
           id="path4143"
           cx="148.03571"
           cy="99.505058"
           rx="1.25"
           ry="1.4285715" />
        <ellipse
           style="fill:#000000;fill-opacity:1"
           id="path4145"
           cx="153.57143"
           cy="106.82649"
           rx="1.7857143"
           ry="0.89285713" />
        <circle
           style="fill:#000000;fill-opacity:1"
           id="path4151"
           cx="143.21429"
           cy="105.57649"
           r="0.71428573" />
        <ellipse
           ry="0.89285713"
           rx="1.7857143"
           cy="100.75507"
           cx="139.28571"
           id="ellipse4153"
           style="fill:#000000;fill-opacity:1" />
      </g>
      <g
         transform="matrix(0,1,-1,0,244.68363,-45.316362)"
         id="g4169">
        <ellipse
           ry="1.4285715"
           rx="1.25"
           cy="99.505058"
           cx="148.03571"
           id="ellipse4171"
           style="fill:#000000;fill-opacity:1" />
        <ellipse
           ry="0.89285713"
           rx="1.7857143"
           cy="106.82649"
           cx="153.57143"
           id="ellipse4173"
           style="fill:#000000;fill-opacity:1" />
        <circle
           r="0.71428573"
           cy="105.57649"
           cx="143.21429"
           id="circle4175"
           style="fill:#000000;fill-opacity:1" />
        <ellipse
           style="fill:#000000;fill-opacity:1"
           id="ellipse4177"
           cx="139.28571"
           cy="100.75507"
           rx="1.7857143"
           ry="0.89285713" />
      </g>
    </g>
    <path
       sodipodi:type="spiral"
       style="fill:none;fill-rule:evenodd;stroke:#000000;stroke-width:1px;stroke-linecap:butt;stroke-linejoin:miter;stroke-opacity:1"
       id="path4191"
       sodipodi:cx="179.28572"
       sodipodi:cy="110.93363"
       sodipodi:expansion="1"
       sodipodi:revolution="3"
       sodipodi:radius="9.8522243"
       sodipodi:argument="-18.089792"
       sodipodi:t0="0"
       d="m 179.28572,110.93363 c 0.35813,0.34023 -0.28193,0.65061 -0.56548,0.59524 -0.7684,-0.15005 -0.91632,-1.12556 -0.62499,-1.72619 0.5211,-1.07439 1.94171,-1.23512 2.8869,-0.65476 1.3871,0.8517 1.56302,2.76882 0.68452,4.04762 -1.1709,1.70443 -3.5998,1.89479 -5.20833,0.71428 -2.02417,-1.48555 -2.22855,-4.43263 -0.74404,-6.36905 1.79793,-2.34527 5.26648,-2.56346 7.52976,-0.7738 2.6672,2.10905 2.8991,6.10098 0.80356,8.69048 -2.41938,2.98967 -6.93592,3.23522 -9.85119,0.83332 -3.31252,-2.72919 -3.57168,-7.77115 -0.86308,-11.01191 3.03863,-3.63563 8.6066,-3.90838 12.17261,-0.89284 3.95895,3.34782 4.24528,9.44223 0.92261,13.33333"
       transform="matrix(1.7563169,0,0,1.9621243,-125.25435,-108.81481)"
       inkscape:export-filename="/home/dylan/Desktop/path4191.png"
       inkscape:export-xdpi="89.941116"
       inkscape:export-ydpi="89.941116" />
    <g
       id="g4197"
       transform="matrix(1.665607,0,0,1.4537535,-166.9242,-52.40284)"
       inkscape:export-filename="/home/dylan/Desktop/g4197.png"
       inkscape:export-xdpi="89.941116"
       inkscape:export-ydpi="89.941116">
      <path
         inkscape:connector-curvature="0"
         id="path4193"
         d="m 239.28571,99.862203 c -7.14285,21.071427 11.78572,15.714287 11.78572,15.714287 l -18.92857,5.71428"
         style="fill:none;fill-rule:evenodd;stroke:#000000;stroke-width:1px;stroke-linecap:butt;stroke-linejoin:miter;stroke-opacity:1" />
      <path
         style="fill:none;fill-rule:evenodd;stroke:#000000;stroke-width:1px;stroke-linecap:butt;stroke-linejoin:miter;stroke-opacity:1"
         d="m 243.92858,121.60891 c 7.14285,-21.07142 -11.78572,-15.71428 -11.78572,-15.71428 l 18.92857,-5.71428"
         id="path4195"
         inkscape:connector-curvature="0" />
    </g>
    <path
       style="fill:none;fill-rule:evenodd;stroke:#000000;stroke-width:1.0688504px;stroke-linecap:butt;stroke-linejoin:miter;stroke-opacity:1"
       d="m 265.80749,89.848194 24.42163,16.468436 -28.31493,0 18.69682,12.55665 z"
       id="path4203"
       inkscape:connector-curvature="0"
       inkscape:export-filename="/home/dylan/Desktop/path4203.png"
       inkscape:export-xdpi="89.941116"
       inkscape:export-ydpi="89.941116" />
    <g
       id="g4215"
       transform="matrix(1.2405898,0,0,1.3235084,-71.725128,-26.691725)"
       inkscape:export-filename="/home/dylan/Desktop/g4215.png"
       inkscape:export-xdpi="89.941116"
       inkscape:export-ydpi="89.941116">
      <path
         transform="matrix(0.30544483,0,0,0.26779499,212.5764,71.495707)"
         inkscape:transform-center-y="-0.015321041"
         inkscape:transform-center-x="0.064557619"
         d="m 306.42856,113.43363 -12.11465,-6.06909 -10.44882,7.83933 2.02841,-13.39717 -10.68451,-7.514933 13.36828,-2.210821 3.84543,-12.48381 6.23364,12.030807 13.06112,-0.200486 -9.51568,9.646273 z"
         inkscape:randomized="0"
         inkscape:rounded="0"
         inkscape:flatsided="false"
         sodipodi:arg2="1.5258817"
         sodipodi:arg1="0.86418213"
         sodipodi:r2="8.582427"
         sodipodi:r1="19.252617"
         sodipodi:cy="98.790771"
         sodipodi:cx="293.92856"
         sodipodi:sides="5"
         id="path4205"
         style="fill:#000000;fill-opacity:1"
         sodipodi:type="star" />
      <path
         sodipodi:type="star"
         style="fill:#000000;fill-opacity:1"
         id="path4207"
         sodipodi:sides="5"
         sodipodi:cx="293.92856"
         sodipodi:cy="98.790771"
         sodipodi:r1="19.252617"
         sodipodi:r2="8.582427"
         sodipodi:arg1="0.86418213"
         sodipodi:arg2="1.5258817"
         inkscape:flatsided="false"
         inkscape:rounded="0"
         inkscape:randomized="0"
         d="m 306.42856,113.43363 -12.11465,-6.06909 -10.44882,7.83933 2.02841,-13.39717 -10.68451,-7.514933 13.36828,-2.210821 3.84543,-12.48381 6.23364,12.030807 13.06112,-0.200486 -9.51568,9.646273 z"
         inkscape:transform-center-x="0.064557619"
         inkscape:transform-center-y="-0.015321041"
         transform="matrix(0.30544483,0,0,0.26779499,227.21926,75.781421)" />
      <path
         transform="matrix(0.30544483,0,0,0.26779499,214.00497,79.35285)"
         inkscape:transform-center-y="-0.015321041"
         inkscape:transform-center-x="0.064557619"
         d="m 306.42856,113.43363 -12.11465,-6.06909 -10.44882,7.83933 2.02841,-13.39717 -10.68451,-7.514933 13.36828,-2.210821 3.84543,-12.48381 6.23364,12.030807 13.06112,-0.200486 -9.51568,9.646273 z"
         inkscape:randomized="0"
         inkscape:rounded="0"
         inkscape:flatsided="false"
         sodipodi:arg2="1.5258817"
         sodipodi:arg1="0.86418213"
         sodipodi:r2="8.582427"
         sodipodi:r1="19.252617"
         sodipodi:cy="98.790771"
         sodipodi:cx="293.92856"
         sodipodi:sides="5"
         id="path4209"
         style="fill:#000000;fill-opacity:1"
         sodipodi:type="star" />
      <path
         sodipodi:type="star"
         style="fill:#000000;fill-opacity:1"
         id="path4211"
         sodipodi:sides="5"
         sodipodi:cx="293.92856"
         sodipodi:cy="98.790771"
         sodipodi:r1="19.252617"
         sodipodi:r2="8.582427"
         sodipodi:arg1="0.86418213"
         sodipodi:arg2="1.5258817"
         inkscape:flatsided="false"
         inkscape:rounded="0"
         inkscape:randomized="0"
         d="m 306.42856,113.43363 -12.11465,-6.06909 -10.44882,7.83933 2.02841,-13.39717 -10.68451,-7.514933 13.36828,-2.210821 3.84543,-12.48381 6.23364,12.030807 13.06112,-0.200486 -9.51568,9.646273 z"
         inkscape:transform-center-x="0.064557619"
         inkscape:transform-center-y="-0.015321041"
         transform="matrix(0.30544483,0,0,0.26779499,222.5764,67.924279)" />
      <path
         transform="matrix(0.30544483,0,0,0.26779499,221.86211,82.567136)"
         inkscape:transform-center-y="-0.015321041"
         inkscape:transform-center-x="0.064557619"
         d="m 306.42856,113.43363 -12.11465,-6.06909 -10.44882,7.83933 2.02841,-13.39717 -10.68451,-7.514933 13.36828,-2.210821 3.84543,-12.48381 6.23364,12.030807 13.06112,-0.200486 -9.51568,9.646273 z"
         inkscape:randomized="0"
         inkscape:rounded="0"
         inkscape:flatsided="false"
         sodipodi:arg2="1.5258817"
         sodipodi:arg1="0.86418213"
         sodipodi:r2="8.582427"
         sodipodi:r1="19.252617"
         sodipodi:cy="98.790771"
         sodipodi:cx="293.92856"
         sodipodi:sides="5"
         id="path4213"
         style="fill:#000000;fill-opacity:1"
         sodipodi:type="star" />
    </g>
  </g>
</svg>
